<svg width="30" height="30" viewBox="0 0 30 30" fill="none" xmlns="http://www.w3.org/2000/svg">
<path d="M15 18.75C15.3542 18.75 15.6513 18.63 15.8913 18.39C16.1313 18.15 16.2508 17.8533 16.25 17.5C16.25 17.1458 16.13 16.8488 15.89 16.6088C15.65 16.3688 15.3533 16.2492 15 16.25C14.6458 16.25 14.3487 16.37 14.1087 16.61C13.8687 16.85 13.7492 17.1467 13.75 17.5C13.75 17.8542 13.87 18.1513 14.11 18.3913C14.35 18.6313 14.6467 18.7508 15 18.75ZM13.75 13.75H16.25V6.25H13.75V13.75ZM2.5 27.5V5C2.5 4.3125 2.745 3.72375 3.235 3.23375C3.725 2.74375 4.31333 2.49917 5 2.5H25C25.6875 2.5 26.2763 2.745 26.7663 3.235C27.2563 3.725 27.5008 4.31334 27.5 5V20C27.5 20.6875 27.255 21.2763 26.765 21.7663C26.275 22.2563 25.6867 22.5008 25 22.5H7.5L2.5 27.5Z" fill="white"/>
</svg>
