<svg width="30" height="30" viewBox="0 0 30 30" fill="none" xmlns="http://www.w3.org/2000/svg">
<path d="M16.0604 3.43918C15.7791 3.15797 15.3976 3 14.9999 3C14.6021 3 14.2207 3.15797 13.9394 3.43918L3.43938 13.9392C3.16614 14.2221 3.01495 14.601 3.01837 14.9943C3.02178 15.3876 3.17954 15.7638 3.45765 16.0419C3.73576 16.32 4.11198 16.4778 4.50528 16.4812C4.89857 16.4846 5.27748 16.3334 5.56038 16.0602L5.99988 15.6207V25.4997C5.99988 25.8975 6.15791 26.279 6.43922 26.5603C6.72052 26.8416 7.10205 26.9997 7.49988 26.9997H10.4999C10.8977 26.9997 11.2792 26.8416 11.5605 26.5603C11.8418 26.279 11.9999 25.8975 11.9999 25.4997V22.4997C11.9999 22.1019 12.1579 21.7203 12.4392 21.439C12.7205 21.1577 13.1021 20.9997 13.4999 20.9997H16.4999C16.8977 20.9997 17.2792 21.1577 17.5605 21.439C17.8418 21.7203 17.9999 22.1019 17.9999 22.4997V25.4997C17.9999 25.8975 18.1579 26.279 18.4392 26.5603C18.7205 26.8416 19.1021 26.9997 19.4999 26.9997H22.4999C22.8977 26.9997 23.2792 26.8416 23.5605 26.5603C23.8418 26.279 23.9999 25.8975 23.9999 25.4997V15.6207L24.4394 16.0602C24.7223 16.3334 25.1012 16.4846 25.4945 16.4812C25.8878 16.4778 26.264 16.32 26.5421 16.0419C26.8202 15.7638 26.978 15.3876 26.9814 14.9943C26.9848 14.601 26.8336 14.2221 26.5604 13.9392L16.0604 3.43918Z" fill="white"/>
</svg>
