<svg width="30" height="30" viewBox="0 0 30 30" fill="none" xmlns="http://www.w3.org/2000/svg">
<path d="M21.25 11.25C21.25 11.913 20.9866 12.5489 20.5178 13.0178C20.0489 13.4866 19.413 13.75 18.75 13.75C18.087 13.75 17.4511 13.4866 16.9822 13.0178C16.5134 12.5489 16.25 11.913 16.25 11.25C16.25 10.587 16.5134 9.95107 16.9822 9.48223C17.4511 9.01339 18.087 8.75 18.75 8.75C19.413 8.75 20.0489 9.01339 20.5178 9.48223C20.9866 9.95107 21.25 10.587 21.25 11.25Z" fill="white"/>
<path fill-rule="evenodd" clip-rule="evenodd" d="M15 1.5625C7.57875 1.5625 1.5625 7.57875 1.5625 15C1.5625 22.4212 7.57875 28.4375 15 28.4375C22.4212 28.4375 28.4375 22.4212 28.4375 15C28.4375 7.57875 22.4212 1.5625 15 1.5625ZM13.9775 19.2025L8.615 13.84C8.0992 13.3247 7.40687 13.0246 6.67815 13.0004C5.94944 12.9763 5.23877 13.2299 4.69 13.71L3.43875 14.8275C3.46614 13.0219 3.91605 11.2478 4.75245 9.64741C5.58885 8.04699 6.78848 6.66472 8.25522 5.61135C9.72196 4.55798 11.415 3.86279 13.1988 3.5815C14.9825 3.3002 16.8074 3.44061 18.5271 3.99148C20.2468 4.54235 21.8136 5.48835 23.102 6.75371C24.3903 8.01906 25.3643 9.56859 25.9461 11.2781C26.5278 12.9877 26.701 14.8097 26.4518 16.5982C26.2027 18.3867 25.5381 20.092 24.5112 21.5775L22.22 19.4988C21.5892 18.9311 20.7844 18.5941 19.9373 18.543C19.0902 18.492 18.2507 18.7297 17.5562 19.2175L17.1825 19.48C16.701 19.8183 16.1157 19.976 15.5294 19.9252C14.9432 19.8745 14.3936 19.6185 13.9775 19.2025Z" fill="white"/>
</svg>
