<svg width="30" height="30" viewBox="0 0 30 30" fill="none" xmlns="http://www.w3.org/2000/svg">
<path d="M25.3129 12C26.2589 12.5448 27.026 13.353 27.5206 14.3263C28.0152 15.2995 28.2158 16.3956 28.0982 17.4809C27.9805 18.5662 27.5495 19.5939 26.8579 20.4385C26.1662 21.2831 25.2437 21.9082 24.2029 22.2375C23.8351 23.9068 22.9081 25.4005 21.5756 26.4712C20.243 27.5418 18.5848 28.1253 16.8754 28.125H14.0629C13.8143 28.125 13.5758 28.0262 13.4 27.8504C13.2242 27.6746 13.1254 27.4361 13.1254 27.1875C13.1254 26.9389 13.2242 26.7004 13.4 26.5246C13.5758 26.3488 13.8143 26.25 14.0629 26.25H16.8754C18.0391 26.2503 19.1742 25.8899 20.1245 25.2183C21.0748 24.5467 21.7935 23.597 22.1817 22.5H21.5629C21.3143 22.5 21.0758 22.4012 20.9 22.2254C20.7242 22.0496 20.6254 21.8111 20.6254 21.5625V12.1875C20.6254 11.9389 20.7242 11.7004 20.9 11.5246C21.0758 11.3488 21.3143 11.25 21.5629 11.25H22.5004C22.8042 11.25 23.1023 11.2744 23.3948 11.3212C23.1837 9.24167 22.2083 7.31447 20.6574 5.91304C19.1065 4.51161 17.0907 3.73573 15.0004 3.73573C12.9101 3.73573 10.8943 4.51161 9.34343 5.91304C7.79256 7.31447 6.8171 9.24167 6.60603 11.3212C6.9018 11.2739 7.20087 11.2501 7.50041 11.25H8.43791C8.68655 11.25 8.925 11.3488 9.10082 11.5246C9.27663 11.7004 9.37541 11.9389 9.37541 12.1875V21.5625C9.37541 21.8111 9.27663 22.0496 9.10082 22.2254C8.925 22.4012 8.68655 22.5 8.43791 22.5H7.50041C6.261 22.5014 5.05583 22.0934 4.07215 21.3394C3.08848 20.5854 2.38136 19.5276 2.06068 18.3304C1.74 17.1332 1.82371 15.8636 2.2988 14.7188C2.77388 13.5741 3.61375 12.6183 4.68791 12C4.68791 9.26496 5.7744 6.64193 7.70837 4.70796C9.64234 2.77399 12.2654 1.6875 15.0004 1.6875C17.7355 1.6875 20.3585 2.77399 22.2924 4.70796C24.2264 6.64193 25.3129 9.26496 25.3129 12ZM7.50041 13.125C6.50584 13.125 5.55202 13.5201 4.84875 14.2233C4.14549 14.9266 3.75041 15.8804 3.75041 16.875C3.75041 17.8696 4.14549 18.8234 4.84875 19.5266C5.55202 20.2299 6.50584 20.625 7.50041 20.625V13.125ZM26.2504 16.875C26.2504 15.8804 25.8553 14.9266 25.1521 14.2233C24.4488 13.5201 23.495 13.125 22.5004 13.125V20.625C23.495 20.625 24.4488 20.2299 25.1521 19.5266C25.8553 18.8234 26.2504 17.8696 26.2504 16.875Z" fill="white"/>
</svg>
